# File created by Blade
# Date/Time:  Tue Jan 27 18:12:51 2015
#---------------------------------------------------------
:version 1.10
:name HOM
:units
  mass 1.0
  length 1.000000
  angle deg
:documentation
     Acclaim Skeleton File
:root
   axis xyz
   order TX TY TZ RX RY RZ
   position 0.000000 0.000000 0.000000
   orientation 0 0 0
:bonedata
   begin
      id 1
      name Spine_dum
      direction 0.000000 1.000000 0.000000
      length 5.195262
      axis 0.0 0.0 0.0 xyz
   end
   begin
      id 2
      name LeftUpLeg_dum
      direction 1.000000 0.000000 0.000000
      length 3.351363
      axis 0.0 0.0 0.0 xyz
   end
   begin
      id 3
      name RightUpLeg_dum
      direction -1.000000 0.000000 0.000000
      length 3.351363
      axis 0.0 0.0 0.0 xyz
   end
   begin
      id 4
      name Spine
      direction 0.000000 1.000000 0.000000
      length 0.000000
      axis 0.0 0.0 0.0 xyz
      dof rx ry rz
   end
   begin
      id 5
      name Spine_dum1
      direction 0.000000 1.000000 0.000000
      length 15.653875
      axis 0.0 0.0 0.0 xyz
   end
   begin
      id 6
      name Spine_dum2
      direction 0.000000 1.000000 0.000000
      length 10.329768
      axis 0.0 0.0 0.0 xyz
   end
   begin
      id 7
      name Spine_dum3
      direction 0.000000 1.000000 0.000000
      length 10.329768
      axis 0.0 0.0 0.0 xyz
   end
   begin
      id 8
      name Head
      direction 0.000000 1.000000 0.000000
      length 4.527550
      axis 0.0 0.0 0.0 xyz
      dof rx ry rz
   end
   begin
      id 9
      name LeftShoulder
      direction 1.000000 0.000000 0.000000
      length 6.996006
      axis 0.0 0.0 -90.0 xyz
      dof rx ry rz
   end
   begin
      id 10
      name LeftArm
      direction 1.000000 0.000000 0.000000
      length 10.209302
      axis 0.0 0.0 -90.0 xyz
      dof rx ry rz
   end
   begin
      id 11
      name LeftForeArm
      direction 1.000000 0.000000 0.000000
      length 8.563163
      axis 0.0 0.0 -90.0 xyz
      dof ry rz rx
   end
   begin
      id 12
      name LeftHand
      direction 0.000000 0.000000 0.000000
      length 0.000000
      axis 0.0 0.0 -90.0 xyz
      dof rx ry rz
   end
   begin
      id 13
      name LeftHand_dum1
      direction 0.000000 0.000000 0.000000
      length 0.000000
      axis 0.0 0.0 -90.0 xyz
   end
   begin
      id 14
      name LeftHand_dum2
      direction 1.000000 0.000000 0.000000
      length 3.937000
      axis 0.0 0.0 -90.0 xyz
   end
   begin
      id 15
      name LeftHandThumb1
      direction 0.000000 0.000000 1.000000
      length 3.937000
      axis 0.0 0.0 -90.0 xyz
      dof rx rz ry
   end
   begin
      id 16
      name RightShoulder
      direction -1.000000 0.000000 0.000000
      length 6.996006
      axis 0.0 0.0 90.0 xyz
      dof rx ry rz
   end
   begin
      id 17
      name RightArm
      direction -1.000000 0.000000 0.000000
      length 10.209302
      axis 0.0 0.0 90.0 xyz
      dof rx ry rz
   end
   begin
      id 18
      name RightForeArm
      direction -1.000000 0.000000 0.000000
      length 8.563163
      axis 0.0 0.0 90.0 xyz
      dof ry rz rx
   end
   begin
      id 19
      name RightHand
      direction 0.000000 0.000000 0.000000
      length 0.000000
      axis 0.0 0.0 90.0 xyz
      dof rx ry rz
   end
   begin
      id 20
      name RightHand_dum1
      direction 0.000000 0.000000 0.000000
      length 0.000000
      axis 0.0 0.0 90.0 xyz
   end
   begin
      id 21
      name RightHand_dum2
      direction -1.000000 0.000000 0.000000
      length 3.937000
      axis 0.0 0.0 90.0 xyz
   end
   begin
      id 22
      name RightHandThumb1
      direction 0.000000 0.000000 1.000000
      length 3.937000
      axis 0.0 0.0 90.0 xyz
      dof rx rz ry
   end
   begin
      id 23
      name LeftUpLeg
      direction 0.000000 -1.000000 0.000000
      length 16.346831
      axis 0.0 0.0 0.0 xyz
      dof rx ry rz
   end
   begin
      id 24
      name LeftLeg
      direction 0.000000 -1.000000 0.000000
      length 13.959795
      axis 0.0 0.0 0.0 xyz
      dof rx ry rz
   end
   begin
      id 25
      name LeftFoot
      direction 0.000000 -0.258819 0.965926
      length 5.165550
      axis 15.0 0.0 0.0 xyz
      dof rx ry rz
   end
   begin
      id 26
      name LeftToeBase
      direction 0.000000 0.000000 1.000000
      length 2.952750
      axis 0.0 0.0 0.0 xyz
      dof rx ry rz
   end
   begin
      id 27
      name RightUpLeg
      direction 0.000000 -1.000000 0.000000
      length 16.346831
      axis 0.0 0.0 0.0 xyz
      dof rx ry rz
   end
   begin
      id 28
      name RightLeg
      direction 0.000000 -1.000000 0.000000
      length 13.959795
      axis 0.0 0.0 0.0 xyz
      dof rx ry rz
   end
   begin
      id 29
      name RightFoot
      direction 0.000000 -0.258819 0.965926
      length 5.165550
      axis 15.0 0.0 0.0 xyz
      dof rx ry rz
   end
   begin
      id 30
      name RightToeBase
      direction 0.000000 0.000000 1.000000
      length 2.952750
      axis 0.0 0.0 0.0 xyz
      dof rx ry rz
   end
:hierarchy
   begin
      root Spine_dum LeftUpLeg_dum RightUpLeg_dum
      Spine_dum Spine
      LeftUpLeg_dum LeftUpLeg
      RightUpLeg_dum RightUpLeg
      Spine Spine_dum1 Spine_dum2 Spine_dum3
      Spine_dum1 Head
      Spine_dum2 LeftShoulder
      Spine_dum3 RightShoulder
      LeftShoulder LeftArm
      LeftArm LeftForeArm
      LeftForeArm LeftHand
      LeftHand LeftHand_dum1 LeftHand_dum2
      LeftHand_dum1 LeftHandThumb1
      RightShoulder RightArm
      RightArm RightForeArm
      RightForeArm RightHand
      RightHand RightHand_dum1 RightHand_dum2
      RightHand_dum1 RightHandThumb1
      LeftUpLeg LeftLeg
      LeftLeg LeftFoot
      LeftFoot LeftToeBase
      RightUpLeg RightLeg
      RightLeg RightFoot
      RightFoot RightToeBase
   end

# File created by Blade
# Date/Time:  Tue Jan 27 18:12:42 2015
# Frame Rate: 120.000 fps
#------------------------------------------------------
:FULLY-SPECIFIED
:DEGREES
132
root -1.414186 31.835289 -6.661888 5.248111 8.215153 3.633312
Spine -6.368964 -8.096469 -1.504662
Head 8.816973 6.046039 -1.437735
LeftShoulder -17.303308 16.531602 21.005797
LeftArm 25.428241 -19.247144 -24.459070
LeftForeArm 1.033280 0.000000 2.210641
LeftHand -14.650365 -0.000000 -0.970759
LeftHandThumb1 -26.253704 0.000000 33.147579
RightShoulder -10.318157 5.054761 -32.600628
RightArm 19.942339 10.542319 37.104761
RightForeArm -23.503940 -0.000000 12.048891
RightHand -15.606539 -0.000000 11.051178
RightHandThumb1 -24.326973 -0.000000 -32.862282
LeftUpLeg -1.256017 -1.583868 -1.327473
LeftLeg 1.211513 -0.000000 -0.000000
LeftFoot -17.620226 16.045029 -24.536388
LeftToeBase 8.588413 -0.000000 -0.000000
RightUpLeg 1.973735 -4.468030 -4.078801
RightLeg -3.427810 -0.000000 0.000000
RightFoot -15.621134 -14.505183 9.935900
RightToeBase 5.172281 -0.000000 -0.000000
133
root -1.413970 31.835441 -6.664476 5.263831 8.207296 3.638678
Spine -6.387062 -8.090705 -1.515377
Head 8.862975 6.000862 -1.451178
LeftShoulder -17.337507 16.630338 20.875399
LeftArm 25.410218 -19.300848 -24.659084
LeftForeArm 1.105268 -0.000000 2.469027
LeftHand -14.672646 0.000000 -0.673941
LeftHandThumb1 -26.253704 0.000000 33.147579
RightShoulder -10.260621 5.160522 -32.426023
RightArm 19.639940 10.897997 37.296994
RightForeArm -23.550948 -0.000000 12.846371
RightHand -15.757969 -0.000000 10.691450
RightHandThumb1 -24.326973 -0.000000 -32.862282
LeftUpLeg -1.278587 -1.580586 -1.335090
LeftLeg 1.222147 -0.000000 -0.000000
LeftFoot -17.622759 16.050992 -24.533905
LeftToeBase 8.615318 -0.000000 -0.000000
RightUpLeg 1.952534 -4.457756 -4.084612
RightLeg -3.427094 -0.000000 0.000000
RightFoot -15.622278 -14.506358 9.941268
RightToeBase 5.140017 -0.000000 -0.000000
134
root -1.413490 31.835110 -6.666480 5.274902 8.200924 3.638505
Spine -6.398404 -8.061719 -1.524069
Head 8.909704 5.932946 -1.460123
LeftShoulder -17.360550 16.706052 20.749944
LeftArm 25.417990 -19.259602 -24.843069
LeftForeArm 1.007740 0.000000 2.693332
LeftHand -14.742619 -0.000000 -0.336392
LeftHandThumb1 -26.253704 0.000000 33.147579
RightShoulder -10.246834 5.038861 -32.207253
RightArm 19.478658 11.464155 37.548673
RightForeArm -23.461032 0.000000 13.735380
RightHand -15.966213 0.000000 10.488141
RightHandThumb1 -24.326973 -0.000000 -32.862282
LeftUpLeg -1.294627 -1.568214 -1.336281
LeftLeg 1.224382 -0.000000 -0.000000
LeftFoot -17.623209 16.046584 -24.529994
LeftToeBase 8.605993 -0.000000 -0.000000
RightUpLeg 1.932300 -4.479390 -4.086821
RightLeg -3.416590 -0.000000 0.000000
RightFoot -15.622454 -14.466047 9.939210
RightToeBase 5.186031 -0.000000 -0.000000
135
root -1.414707 31.835590 -6.669319 5.294458 8.196918 3.630066
Spine -6.423673 -8.062878 -1.513103
Head 8.973663 5.903324 -1.490887
LeftShoulder -17.385525 16.759911 20.598577
LeftArm 25.372076 -19.287995 -25.066104
LeftForeArm 1.022219 0.000000 2.973402
LeftHand -14.903856 0.000000 -0.131560
LeftHandThumb1 -26.253704 0.000000 33.147579
RightShoulder -10.256947 5.046122 -31.957539
RightArm 19.263625 11.949352 37.777327
RightForeArm -23.283510 -0.000000 14.798370
RightHand -16.106733 -0.000000 10.187651
RightHandThumb1 -24.326973 -0.000000 -32.862282
LeftUpLeg -1.327132 -1.573352 -1.325384
LeftLeg 1.240541 -0.000000 -0.000000
LeftFoot -17.624716 16.046403 -24.532755
LeftToeBase 8.610614 -0.000000 -0.000000
RightUpLeg 1.906746 -4.465601 -4.075509
RightLeg -3.420739 -0.000000 0.000000
RightFoot -15.611343 -14.481338 9.936417
RightToeBase 5.194674 -0.000000 -0.000000
136
root -1.414530 31.835951 -6.671286 5.301753 8.193365 3.628239
Spine -6.438810 -8.053973 -1.502334
Head 9.056013 5.844387 -1.547896
LeftShoulder -17.410876 16.828616 20.397604
LeftArm 25.352284 -19.233096 -25.226666
LeftForeArm 0.945053 -0.000000 3.187138
LeftHand -14.758332 0.000000 0.171700
LeftHandThumb1 -26.253704 0.000000 33.147579
RightShoulder -10.222652 4.917970 -31.692363
RightArm 19.032212 12.629246 38.062433
RightForeArm -23.122563 -0.000000 15.983944
RightHand -16.394657 0.000000 9.698653
RightHandThumb1 -24.326973 -0.000000 -32.862282
LeftUpLeg -1.335361 -1.575992 -1.326270
LeftLeg 1.230501 -0.000000 -0.000000
LeftFoot -17.623154 16.069610 -24.523736
LeftToeBase 8.610050 -0.000000 -0.000000
RightUpLeg 1.893017 -4.480125 -4.072020
RightLeg -3.419818 -0.000000 0.000000
RightFoot -15.603987 -14.479987 9.919320
RightToeBase 5.189347 -0.000000 -0.000000
137
root -1.414130 31.836336 -6.673827 5.323144 8.190415 3.628621
Spine -6.466636 -8.053159 -1.500153
Head 9.144365 5.802018 -1.582822
LeftShoulder -17.474452 16.900626 20.179060
LeftArm 25.365280 -19.158273 -25.405029
LeftForeArm 0.869354 0.000000 3.437756
LeftHand -14.721676 -0.000000 0.490769
LeftHandThumb1 -26.253704 0.000000 33.147579
RightShoulder -10.173436 4.971395 -31.419283
RightArm 18.626294 13.424611 38.419444
RightForeArm -23.113319 -0.000000 17.361713
RightHand -16.292835 -0.000000 9.669255
RightHandThumb1 -24.326973 -0.000000 -32.862282
LeftUpLeg -1.365124 -1.573100 -1.326745
LeftLeg 1.241209 -0.000000 -0.000000
LeftFoot -17.615412 16.070400 -24.501869
LeftToeBase 8.578860 -0.000000 -0.000000
RightUpLeg 1.863047 -4.478899 -4.072882
RightLeg -3.412033 -0.000000 0.000000
RightFoot -15.601398 -14.468701 9.930561
RightToeBase 5.172924 -0.000000 -0.000000
138
root -1.413927 31.836798 -6.675463 5.335561 8.183308 3.628774
Spine -6.497249 -8.038898 -1.496052
Head 9.289267 5.751736 -1.623535
LeftShoulder -17.472357 16.900859 19.981497
LeftArm 25.290352 -19.082431 -25.609903
LeftForeArm 0.932686 0.000000 3.709800
LeftHand -14.716430 0.000000 0.621963
LeftHandThumb1 -26.253704 0.000000 33.147579
RightShoulder -10.146015 4.954394 -31.147247
RightArm 18.282133 14.361597 38.897356
RightForeArm -23.070476 -0.000000 18.821750
RightHand -16.555009 -0.000000 9.148317
RightHandThumb1 -24.326973 -0.000000 -32.862282
LeftUpLeg -1.373655 -1.582732 -1.327206
LeftLeg 1.228191 -0.000000 -0.000000
LeftFoot -17.620742 16.079967 -24.535354
LeftToeBase 8.597618 -0.000000 -0.000000
RightUpLeg 1.847541 -4.475284 -4.072710
RightLeg -3.414452 -0.000000 0.000000
RightFoot -15.594574 -14.484127 9.915012
RightToeBase 5.177779 -0.000000 -0.000000
